<?xml version="1.0" encoding="utf-8"?>
<!-- Generator: Adobe Illustrator 17.1.0, SVG Export Plug-In . SVG Version: 6.00 Build 0)  -->
<!DOCTYPE svg PUBLIC "-//W3C//DTD SVG 1.1 Tiny//EN" "http://www.w3.org/Graphics/SVG/1.1/DTD/svg11-tiny.dtd">
<svg version="1.1" baseProfile="tiny" id="Layer_1" xmlns="http://www.w3.org/2000/svg" xmlns:xlink="http://www.w3.org/1999/xlink"
	 x="0px" y="0px" viewBox="0 0 214.5 25.7" xml:space="preserve">
<polygon fill="#FFFFFF" points="18,25.5 18,10.8 13.1,20.4 9.8,20.4 4.9,10.8 4.9,25.5 0,25.5 0,0.2 4.9,0.2 11.5,13.9 18.1,0.2 
	22.9,0.2 22.9,25.5 "/>
<path fill="#FFFFFF" d="M42.4,23c-1.8,1.8-3.9,2.8-6.8,2.8s-5.1-1-6.9-2.8c-2.6-2.6-2.5-5.7-2.5-10.1c0-4.4-0.1-7.5,2.5-10.1
	C30.5,1,32.7,0,35.5,0s5,1,6.8,2.8c2.6,2.6,2.5,5.7,2.5,10.1C44.9,17.2,44.9,20.4,42.4,23 M38.7,5.8c-0.7-0.8-1.8-1.4-3.2-1.4
	c-1.3,0-2.5,0.5-3.2,1.4c-1,1.1-1.2,2.2-1.2,7.1c0,4.9,0.2,6,1.2,7.1c0.7,0.8,1.8,1.3,3.2,1.3c1.4,0,2.5-0.5,3.2-1.3
	c1-1.1,1.2-2.2,1.2-7.1C39.9,8,39.7,6.8,38.7,5.8"/>
<path fill="#FFFFFF" d="M56.6,25.7c-2.7,0-5-0.9-6.8-2.8c-1.1-1.1-1.8-2.4-2.1-3.8c-0.3-1.4-0.4-3.5-0.4-6.3s0.1-4.9,0.4-6.3
	c0.3-1.5,1-2.7,2.1-3.8C51.6,0.9,53.9,0,56.6,0c4.9,0,8.5,2.8,9.3,8h-5c-0.5-2.2-1.9-3.6-4.3-3.6c-1.4,0-2.4,0.4-3.2,1.3
	c-1,1.1-1.2,2.2-1.2,7.1c0,4.9,0.2,6,1.2,7.1c0.7,0.9,1.8,1.3,3.2,1.3c2.4,0,3.7-1.4,4.3-3.6h5C65.1,22.9,61.5,25.7,56.6,25.7"/>
<polygon fill="#FFFFFF" points="81.9,25.5 81.9,4.6 73.4,4.6 73.4,25.5 68.4,25.5 68.4,0.2 86.9,0.2 86.9,25.5 "/>
<path fill="#FFFFFF" d="M100.8,16h-4.9v9.5H91V0.2h9.8c5.2,0,8.4,3.6,8.4,7.9C109.2,12.4,106,16,100.8,16 M100.6,4.6h-4.6v6.9h4.6
	c2.2,0,3.7-1.4,3.7-3.4S102.8,4.6,100.6,4.6"/>
<path fill="#FFFFFF" d="M126.9,23c-1.8,1.8-3.9,2.8-6.8,2.8c-2.9,0-5.1-1-6.9-2.8c-2.6-2.6-2.5-5.7-2.5-10.1c0-4.4-0.1-7.5,2.5-10.1
	c1.8-1.8,4-2.8,6.9-2.8c2.9,0,5,1,6.8,2.8c2.6,2.6,2.5,5.7,2.5,10.1C129.4,17.2,129.4,20.4,126.9,23 M123.2,5.8
	c-0.7-0.8-1.8-1.4-3.2-1.4c-1.4,0-2.5,0.5-3.2,1.4c-1,1.1-1.2,2.2-1.2,7.1c0,4.9,0.2,6,1.2,7.1c0.7,0.8,1.8,1.3,3.2,1.3
	c1.4,0,2.5-0.5,3.2-1.3c1-1.1,1.2-2.2,1.2-7.1C124.4,8,124.2,6.8,123.2,5.8"/>
<polygon fill="#FFFFFF" points="132.6,25.5 132.6,0.2 149.3,0.2 149.3,4.6 137.6,4.6 137.6,10.6 147.6,10.6 147.6,15 137.6,15 
	137.6,21.1 149.3,21.1 149.3,25.5 "/>
<polygon fill="#FFFFFF" points="167.1,25.5 160.6,14 157.3,17.9 157.3,25.5 152.4,25.5 152.4,0.2 157.3,0.2 157.3,11.2 166.2,0.2 
	172.2,0.2 163.9,10.3 172.8,25.5 "/>
<polygon fill="#FFFFFF" points="183.9,4.6 183.9,25.5 179,25.5 179,4.6 172.4,4.6 172.4,0.2 190.5,0.2 190.5,4.6 "/>
<polygon fill="#FFFFFF" points="212.2,21.9 212.2,25.5 207.7,25.5 207.7,21.9 197.4,21.9 197.4,17.6 206,0.2 211.1,0.2 202.4,17.6 
	207.7,17.6 207.7,12.8 212.2,12.8 212.2,17.6 214.5,17.6 214.5,21.9 "/>
</svg>
